%TF.GenerationSoftware,KiCad,Pcbnew,(5.1.9)-1*%
%TF.CreationDate,2021-02-27T18:17:11+05:30*%
%TF.ProjectId,ESP_PCB,4553505f-5043-4422-9e6b-696361645f70,rev?*%
%TF.SameCoordinates,Original*%
%TF.FileFunction,Soldermask,Top*%
%TF.FilePolarity,Negative*%
%FSLAX46Y46*%
G04 Gerber Fmt 4.6, Leading zero omitted, Abs format (unit mm)*
G04 Created by KiCad (PCBNEW (5.1.9)-1) date 2021-02-27 18:17:11*
%MOMM*%
%LPD*%
G01*
G04 APERTURE LIST*
%ADD10R,2.000000X2.700000*%
%ADD11O,2.000000X2.700000*%
%ADD12O,1.700000X1.950000*%
%ADD13O,2.000000X2.600000*%
%ADD14C,1.600000*%
%ADD15O,1.600000X2.400000*%
%ADD16R,1.600000X2.400000*%
%ADD17R,1.600000X1.600000*%
%ADD18O,1.524000X2.400000*%
G04 APERTURE END LIST*
D10*
%TO.C,U2*%
X139530000Y-122900000D03*
D11*
X153500000Y-97500000D03*
X150960000Y-97500000D03*
X148420000Y-97500000D03*
X145880000Y-97500000D03*
X143340000Y-97500000D03*
X154770000Y-122900000D03*
X152230000Y-122900000D03*
X149690000Y-122900000D03*
X147150000Y-122900000D03*
X144610000Y-122900000D03*
X142070000Y-122900000D03*
%TD*%
%TO.C,J1*%
G36*
G01*
X184925000Y-88300000D02*
X182575000Y-88300000D01*
G75*
G02*
X182250000Y-87975000I0J325000D01*
G01*
X182250000Y-86025000D01*
G75*
G02*
X182575000Y-85700000I325000J0D01*
G01*
X184925000Y-85700000D01*
G75*
G02*
X185250000Y-86025000I0J-325000D01*
G01*
X185250000Y-87975000D01*
G75*
G02*
X184925000Y-88300000I-325000J0D01*
G01*
G37*
G36*
G01*
X184925000Y-91800000D02*
X182575000Y-91800000D01*
G75*
G02*
X182250000Y-91475000I0J325000D01*
G01*
X182250000Y-89525000D01*
G75*
G02*
X182575000Y-89200000I325000J0D01*
G01*
X184925000Y-89200000D01*
G75*
G02*
X185250000Y-89525000I0J-325000D01*
G01*
X185250000Y-91475000D01*
G75*
G02*
X184925000Y-91800000I-325000J0D01*
G01*
G37*
%TD*%
D12*
%TO.C,J4*%
X138000000Y-85750000D03*
X140500000Y-85750000D03*
X143000000Y-85750000D03*
X145500000Y-85750000D03*
G36*
G01*
X148850000Y-85025000D02*
X148850000Y-86475000D01*
G75*
G02*
X148600000Y-86725000I-250000J0D01*
G01*
X147400000Y-86725000D01*
G75*
G02*
X147150000Y-86475000I0J250000D01*
G01*
X147150000Y-85025000D01*
G75*
G02*
X147400000Y-84775000I250000J0D01*
G01*
X148600000Y-84775000D01*
G75*
G02*
X148850000Y-85025000I0J-250000D01*
G01*
G37*
%TD*%
D13*
%TO.C,J6*%
X184750000Y-107000000D03*
X182250000Y-107000000D03*
X179750000Y-107000000D03*
X177250000Y-107000000D03*
%TD*%
D14*
%TO.C,C2*%
X168500000Y-84500000D03*
X171000000Y-84500000D03*
%TD*%
D15*
%TO.C,U1*%
X171040000Y-107750000D03*
X163420000Y-97590000D03*
X168500000Y-107750000D03*
X165960000Y-97590000D03*
X165960000Y-107750000D03*
X168500000Y-97590000D03*
X163420000Y-107750000D03*
D16*
X171040000Y-97590000D03*
%TD*%
D13*
%TO.C,J5*%
X184814999Y-113274999D03*
X182314999Y-113274999D03*
X179814999Y-113274999D03*
X177314999Y-113274999D03*
%TD*%
D14*
%TO.C,C1*%
X173250000Y-90000000D03*
D17*
X173250000Y-87500000D03*
%TD*%
D13*
%TO.C,J3*%
X171000000Y-122250000D03*
X168500000Y-122250000D03*
X166000000Y-122250000D03*
X163500000Y-122250000D03*
%TD*%
%TO.C,J2*%
X177314999Y-119124999D03*
X179814999Y-119124999D03*
X182314999Y-119124999D03*
X184814999Y-119124999D03*
%TD*%
D18*
%TO.C,U3*%
X158230000Y-80570000D03*
X137910000Y-80570000D03*
X140450000Y-80570000D03*
X150610000Y-80570000D03*
X153150000Y-80570000D03*
X168390000Y-80570000D03*
X170930000Y-80570000D03*
X155690000Y-80570000D03*
X135370000Y-80570000D03*
X148070000Y-80570000D03*
X163310000Y-80570000D03*
X160770000Y-80570000D03*
X145530000Y-80570000D03*
X165850000Y-80570000D03*
X142990000Y-80570000D03*
X170930000Y-55170000D03*
X168390000Y-55170000D03*
X165850000Y-55170000D03*
X163310000Y-55170000D03*
X160770000Y-55170000D03*
X158230000Y-55170000D03*
X155690000Y-55170000D03*
X153150000Y-55170000D03*
X150610000Y-55170000D03*
X148070000Y-55170000D03*
X145530000Y-55170000D03*
X142990000Y-55170000D03*
X140450000Y-55170000D03*
X137910000Y-55170000D03*
X135370000Y-55170000D03*
%TD*%
M02*
