%TF.GenerationSoftware,KiCad,Pcbnew,(5.1.9)-1*%
%TF.CreationDate,2021-02-27T18:17:11+05:30*%
%TF.ProjectId,ESP_PCB,4553505f-5043-4422-9e6b-696361645f70,rev?*%
%TF.SameCoordinates,Original*%
%TF.FileFunction,Legend,Bot*%
%TF.FilePolarity,Positive*%
%FSLAX46Y46*%
G04 Gerber Fmt 4.6, Leading zero omitted, Abs format (unit mm)*
G04 Created by KiCad (PCBNEW (5.1.9)-1) date 2021-02-27 18:17:11*
%MOMM*%
%LPD*%
G01*
G04 APERTURE LIST*
%ADD10C,0.120000*%
%ADD11C,0.150000*%
G04 APERTURE END LIST*
D10*
%TO.C,R1*%
X146410000Y-61777064D02*
X146410000Y-60322936D01*
X144590000Y-61777064D02*
X144590000Y-60322936D01*
%TO.C,R2*%
X138660000Y-61527064D02*
X138660000Y-60072936D01*
X136840000Y-61527064D02*
X136840000Y-60072936D01*
%TO.C,R1*%
D11*
X147772380Y-60883333D02*
X147296190Y-60550000D01*
X147772380Y-60311904D02*
X146772380Y-60311904D01*
X146772380Y-60692857D01*
X146820000Y-60788095D01*
X146867619Y-60835714D01*
X146962857Y-60883333D01*
X147105714Y-60883333D01*
X147200952Y-60835714D01*
X147248571Y-60788095D01*
X147296190Y-60692857D01*
X147296190Y-60311904D01*
X147772380Y-61835714D02*
X147772380Y-61264285D01*
X147772380Y-61550000D02*
X146772380Y-61550000D01*
X146915238Y-61454761D01*
X147010476Y-61359523D01*
X147058095Y-61264285D01*
%TO.C,R2*%
X140022380Y-60633333D02*
X139546190Y-60300000D01*
X140022380Y-60061904D02*
X139022380Y-60061904D01*
X139022380Y-60442857D01*
X139070000Y-60538095D01*
X139117619Y-60585714D01*
X139212857Y-60633333D01*
X139355714Y-60633333D01*
X139450952Y-60585714D01*
X139498571Y-60538095D01*
X139546190Y-60442857D01*
X139546190Y-60061904D01*
X139117619Y-61014285D02*
X139070000Y-61061904D01*
X139022380Y-61157142D01*
X139022380Y-61395238D01*
X139070000Y-61490476D01*
X139117619Y-61538095D01*
X139212857Y-61585714D01*
X139308095Y-61585714D01*
X139450952Y-61538095D01*
X140022380Y-60966666D01*
X140022380Y-61585714D01*
%TD*%
M02*
